<svg width="16" height="16" viewBox="0 0 16 16" fill="none" xmlns="http://www.w3.org/2000/svg">
<path d="M7.2569 5.09176L6.68944 5.65923C7.31365 5.6277 7.84486 5.69074 8.28307 5.84837C8.72127 6.006 9.1043 6.24875 9.43218 6.57662C9.89244 7.03689 10.1967 7.54918 10.3448 8.11348C10.493 8.6778 10.4883 9.24212 10.3307 9.80643C10.173 10.3707 9.86093 10.8862 9.39435 11.3528L6.99208 13.755C6.5192 14.2216 6.00218 14.5337 5.44102 14.6913C4.87987 14.849 4.31713 14.8537 3.75283 14.7055C3.18852 14.5573 2.67938 14.2563 2.22542 13.8023C1.76514 13.3357 1.45933 12.8219 1.30801 12.2607C1.15669 11.6995 1.15985 11.1368 1.31748 10.5725C1.47511 10.0082 1.78721 9.49274 2.25377 9.02617L4.27774 7.0022C4.22729 6.89503 4.19576 6.7642 4.18316 6.60972C4.17054 6.45525 4.18945 6.29919 4.23989 6.14156L1.75252 8.63839C1.20398 9.18063 0.836704 9.78277 0.650703 10.4448C0.464702 11.1069 0.463125 11.7705 0.645975 12.4357C0.828827 13.1009 1.19767 13.7109 1.75252 14.2657C2.30737 14.8206 2.9174 15.1879 3.58259 15.3676C4.24779 15.5472 4.9114 15.5441 5.57343 15.3581C6.23548 15.1721 6.83762 14.8111 7.37986 14.2752L9.90506 11.7405C10.4473 11.1983 10.8114 10.5961 10.9974 9.93411C11.1834 9.27206 11.185 8.60844 11.0022 7.94325C10.8193 7.27806 10.4536 6.66804 9.90506 6.11319C9.5835 5.79163 9.21623 5.54258 8.80323 5.36603C8.39025 5.18949 7.87481 5.09807 7.2569 5.09176ZM8.74175 10.9083L9.30922 10.3408C8.68501 10.3786 8.15538 10.3171 7.72033 10.1564C7.28528 9.99557 6.90382 9.75125 6.57595 9.42338C6.11567 8.96311 5.80987 8.45082 5.65856 7.88651C5.50723 7.32221 5.51038 6.75789 5.66801 6.19357C5.82564 5.62926 6.13774 5.11698 6.60433 4.65671L9.01602 2.24499C9.48261 1.78471 9.99805 1.47575 10.5624 1.31813C11.1267 1.1605 11.6894 1.15577 12.2506 1.30395C12.8117 1.45212 13.3193 1.75319 13.7733 2.20716C14.2398 2.66743 14.5472 3.17972 14.6954 3.74404C14.8435 4.30835 14.8388 4.87108 14.6812 5.43224C14.5236 5.9934 14.2115 6.50727 13.7449 6.97385L11.7304 8.99779C11.7745 9.10498 11.8029 9.23581 11.8155 9.39027C11.8281 9.54475 11.8124 9.7008 11.7682 9.85843L14.2556 7.37106C14.7978 6.82882 15.162 6.22668 15.348 5.56465C15.534 4.9026 15.5371 4.23741 15.3574 3.56906C15.1777 2.90073 14.8104 2.29228 14.2556 1.74373C13.7007 1.18257 13.0892 0.812146 12.4208 0.63245C11.7525 0.452754 11.0873 0.455904 10.4252 0.641902C9.76319 0.827912 9.16421 1.19204 8.62827 1.73428L6.10307 4.25948C5.55451 4.80172 5.18881 5.40386 5.00597 6.06591C4.82312 6.72794 4.82155 7.39313 5.00124 8.06148C5.18094 8.72982 5.54821 9.33827 6.10307 9.88681C6.41832 10.2084 6.78244 10.4574 7.19542 10.634C7.60841 10.8105 8.12386 10.9019 8.74175 10.9083Z" fill="#FF8552"/>
</svg>
