<svg width="20" height="20" viewBox="0 0 20 20" fill="none" xmlns="http://www.w3.org/2000/svg">
<path d="M14.2549 9.99999C14.2549 9.92789 14.2409 9.86379 14.2128 9.8077C14.1848 9.75161 14.1467 9.69952 14.0986 9.65144L6.51451 2.63221C6.42637 2.54407 6.31819 2.5 6.18998 2.5C6.06979 2.5 5.96562 2.54006 5.87748 2.62019C5.78935 2.70032 5.74528 2.80448 5.74528 2.93269C5.74528 3.05288 5.78935 3.15705 5.87748 3.24519L13.1732 9.99999L5.87748 16.7548C5.78934 16.8429 5.74527 16.9471 5.74527 17.0673C5.74527 17.1955 5.78934 17.2997 5.87748 17.3798C5.96562 17.4599 6.06979 17.5 6.18998 17.5C6.31819 17.5 6.42637 17.4559 6.51451 17.3678L14.0986 10.3485C14.2028 10.2524 14.2549 10.1362 14.2549 9.99999Z" fill="#FF8552"/>
</svg>
