<svg width="26" height="26" viewBox="0 0 26 26" fill="none" xmlns="http://www.w3.org/2000/svg">
<path d="M13 25.9033C14.7829 25.9033 16.4515 25.569 18.0059 24.9004C19.5603 24.2318 20.9336 23.3014 22.1259 22.1092C23.3181 20.9169 24.2486 19.5436 24.9171 17.9892C25.5857 16.4348 25.92 14.7717 25.92 13C25.92 11.2283 25.5857 9.56529 24.9171 8.01089C24.2486 6.45649 23.3181 5.08316 22.1259 3.89089C20.9336 2.69863 19.5603 1.76821 18.0059 1.09965C16.4515 0.431085 14.7829 0.0968018 13 0.0968018C11.2283 0.0968018 9.56251 0.431085 8.00252 1.09965C6.44255 1.76821 5.072 2.69863 3.89088 3.89089C2.70975 5.08316 1.78212 6.45649 1.108 8.01089C0.433868 9.56529 0.0968018 11.2283 0.0968018 13C0.0968018 14.7717 0.433868 16.4348 1.108 17.9892C1.78212 19.5436 2.70975 20.9169 3.89088 22.1092C5.072 23.3014 6.44255 24.2318 8.00252 24.9004C9.56251 25.569 11.2283 25.9033 13 25.9033ZM13 24.75C11.3843 24.75 9.86615 24.4463 8.44546 23.8391C7.02476 23.2318 5.77678 22.3905 4.70152 21.3153C3.62625 20.24 2.78497 18.9892 2.17768 17.563C1.57041 16.1367 1.26678 14.6157 1.26678 13C1.26678 11.3843 1.57041 9.86335 2.17768 8.43709C2.78497 7.01083 3.62625 5.76006 4.70152 4.6848C5.77678 3.60953 7.02476 2.76826 8.44546 2.16099C9.86615 1.5537 11.3843 1.25006 13 1.25006C14.6269 1.25006 16.1506 1.5537 17.5713 2.16099C18.992 2.76826 20.24 3.60953 21.3152 4.6848C22.3905 5.76006 23.2318 7.01083 23.8391 8.43709C24.4463 9.86335 24.75 11.3843 24.75 13C24.75 14.6157 24.4463 16.1367 23.8391 17.563C23.2318 18.9892 22.3905 20.24 21.3152 21.3153C20.24 22.3905 18.992 23.2318 17.5713 23.8391C16.1506 24.4463 14.6269 24.75 13 24.75ZM8.35351 18.265C8.52067 18.265 8.6711 18.1981 8.80481 18.0644L13.0167 13.8524L17.2287 18.0644C17.3624 18.1981 17.5184 18.265 17.6967 18.265C17.8527 18.265 17.9891 18.2092 18.1061 18.0978C18.2231 17.9864 18.2816 17.8527 18.2816 17.6967C18.2816 17.5295 18.2204 17.3791 18.0978 17.2454L13.8524 13.0167L18.0978 8.77138C18.2315 8.63766 18.2984 8.49279 18.2984 8.3368C18.2984 8.16966 18.2399 8.03317 18.1229 7.92733C18.0059 7.82147 17.8638 7.76854 17.6967 7.76854C17.5295 7.76854 17.3791 7.83539 17.2454 7.96909L13.0167 12.181L8.7881 7.96909C8.66554 7.83539 8.52067 7.76854 8.35351 7.76854C8.18638 7.76854 8.04431 7.82425 7.92731 7.93568C7.81031 8.04711 7.75181 8.18082 7.75181 8.3368C7.75181 8.50395 7.81868 8.64882 7.9524 8.77138L12.181 13.0167L7.9524 17.2621C7.81868 17.3847 7.75181 17.5295 7.75181 17.6967C7.75181 17.8527 7.81031 17.9864 7.92731 18.0978C8.04431 18.2092 8.18638 18.265 8.35351 18.265Z" fill="#FF8552"/>
</svg>
